<?xml version="1.0" encoding="UTF-8"?>
<svg version="1.1" xmlns="http://www.w3.org/2000/svg" width="835" height="830">
<path d="M0 0 C166.65 0 333.3 0 505 0 C505.33 0.99 505.66 1.98 506 3 C509.3 3 512.6 3 516 3 C516.33 3.99 516.66 4.98 517 6 C520.63 6 524.26 6 528 6 C528 6.66 528 7.32 528 8 C531.3 8 534.6 8 538 8 C538 8.99 538 9.98 538 11 C540.97 11 543.94 11 547 11 C547 11.99 547 12.98 547 14 C549.64 14 552.28 14 555 14 C555 14.99 555 15.98 555 17 C556.65 17 558.3 17 560 17 C560 17.66 560 18.32 560 19 C561.98 19 563.96 19 566 19 C566 19.99 566 20.98 566 22 C567.65 22 569.3 22 571 22 C571 22.99 571 23.98 571 25 C571.99 25 572.98 25 574 25 C574 25.99 574 26.98 574 28 C575.65 28 577.3 28 579 28 C579 28.66 579 29.32 579 30 C580.65 30 582.3 30 584 30 C584.33 30.99 584.66 31.98 585 33 C585.99 33 586.98 33 588 33 C588 33.99 588 34.98 588 36 C589.65 36 591.3 36 593 36 C593 36.66 593 37.32 593 38 C593.99 38.33 594.98 38.66 596 39 C596 39.66 596 40.32 596 41 C596.99 41.33 597.98 41.66 599 42 C599 42.66 599 43.32 599 44 C599.66 44 600.32 44 601 44 C601 44.99 601 45.98 601 47 C601.99 47 602.98 47 604 47 C604 47.66 604 48.32 604 49 C604.99 49 605.98 49 607 49 C607 49.99 607 50.98 607 52 C608.65 52 610.3 52 612 52 C612 52.99 612 53.98 612 55 C612.99 55 613.98 55 615 55 C615 55.99 615 56.98 615 58 C615.99 58 616.98 58 618 58 C618 58.66 618 59.32 618 60 C618.66 60 619.32 60 620 60 C620 60.99 620 61.98 620 63 C620.99 63 621.98 63 623 63 C623 64.65 623 66.3 623 68 C623.99 68.33 624.98 68.66 626 69 C626 69.66 626 70.32 626 71 C626.99 71.33 627.98 71.66 629 72 C629 72.66 629 73.32 629 74 C629.66 74 630.32 74 631 74 C631 74.99 631 75.98 631 77 C631.99 77 632.98 77 634 77 C634 78.65 634 80.3 634 82 C634.99 82 635.98 82 637 82 C637 82.99 637 83.98 637 85 C637.66 85 638.32 85 639 85 C639 86.65 639 88.3 639 90 C639.99 90 640.98 90 642 90 C642 91.98 642 93.96 642 96 C642.99 96 643.98 96 645 96 C645 96.99 645 97.98 645 99 C645.99 99 646.98 99 648 99 C648 100.65 648 102.3 648 104 C648.66 104 649.32 104 650 104 C650 106.64 650 109.28 650 112 C650.99 112 651.98 112 653 112 C653 112.99 653 113.98 653 115 C653.99 115 654.98 115 656 115 C656 117.64 656 120.28 656 123 C656.99 123.33 657.98 123.66 659 124 C659 126.31 659 128.62 659 131 C659.66 131 660.32 131 661 131 C661 133.97 661 136.94 661 140 C661.99 140 662.98 140 664 140 C664 144.29 664 148.58 664 153 C664.99 153 665.98 153 667 153 C667 160.26 667 167.52 667 175 C667.66 175 668.32 175 669 175 C669 333.07 669 491.14 669 654 C668.34 654 667.68 654 667 654 C667 660.93 667 667.86 667 675 C666.01 675.33 665.02 675.66 664 676 C664 680.29 664 684.58 664 689 C663.01 689 662.02 689 661 689 C661 691.64 661 694.28 661 697 C660.34 697 659.68 697 659 697 C659 699.64 659 702.28 659 705 C658.01 705.33 657.02 705.66 656 706 C656 708.31 656 710.62 656 713 C655.01 713.33 654.02 713.66 653 714 C653 714.99 653 715.98 653 717 C652.01 717 651.02 717 650 717 C650 719.64 650 722.28 650 725 C649.34 725 648.68 725 648 725 C647.67 726.65 647.34 728.3 647 730 C646.34 730 645.68 730 645 730 C645 731.65 645 733.3 645 735 C644.01 735.33 643.02 735.66 642 736 C642 736.66 642 737.32 642 738 C641.01 738 640.02 738 639 738 C639 739.98 639 741.96 639 744 C638.34 744 637.68 744 637 744 C637 744.99 637 745.98 637 747 C636.01 747 635.02 747 634 747 C634 748.65 634 750.3 634 752 C633.01 752 632.02 752 631 752 C631 752.99 631 753.98 631 755 C630.34 755 629.68 755 629 755 C629 755.66 629 756.32 629 757 C628.01 757 627.02 757 626 757 C626 758.98 626 760.96 626 763 C625.01 763 624.02 763 623 763 C622.67 763.99 622.34 764.98 622 766 C621.34 766 620.68 766 620 766 C620 766.66 620 767.32 620 768 C619.34 768 618.68 768 618 768 C617.67 768.99 617.34 769.98 617 771 C616.34 771 615.68 771 615 771 C615 771.99 615 772.98 615 774 C614.01 774 613.02 774 612 774 C611.67 774.99 611.34 775.98 611 777 C610.34 777 609.68 777 609 777 C609 777.66 609 778.32 609 779 C608.34 779 607.68 779 607 779 C607 779.99 607 780.98 607 782 C606.01 782 605.02 782 604 782 C604 782.99 604 783.98 604 785 C602.35 785 600.7 785 599 785 C598.67 785.99 598.34 786.98 598 788 C597.34 788 596.68 788 596 788 C596 788.66 596 789.32 596 790 C595.01 790 594.02 790 593 790 C593 790.99 593 791.98 593 793 C591.35 793 589.7 793 588 793 C588 793.99 588 794.98 588 796 C587.01 796 586.02 796 585 796 C585 796.66 585 797.32 585 798 C583.02 798 581.04 798 579 798 C579 798.99 579 799.98 579 801 C578.34 801 577.68 801 577 801 C576.67 801.99 576.34 802.98 576 804 C574.35 804 572.7 804 571 804 C571 804.99 571 805.98 571 807 C569.35 807 567.7 807 566 807 C566 807.66 566 808.32 566 809 C564.02 809 562.04 809 560 809 C560 809.99 560 810.98 560 812 C557.36 812 554.72 812 552 812 C552 812.99 552 813.98 552 815 C550.35 815 548.7 815 547 815 C547 815.66 547 816.32 547 817 C544.03 817.33 541.06 817.66 538 818 C538 818.66 538 819.32 538 820 C535.36 820 532.72 820 530 820 C530 820.99 530 821.98 530 823 C526.37 823 522.74 823 519 823 C519 823.99 519 824.98 519 826 C513.72 826 508.44 826 503 826 C503 826.66 503 827.32 503 828 C337.01 828 171.02 828 0 828 C0 827.34 0 826.68 0 826 C-5.28 826 -10.56 826 -16 826 C-16 825.01 -16 824.02 -16 823 C-20.62 823 -25.24 823 -30 823 C-30 822.01 -30 821.02 -30 820 C-31.65 820 -33.3 820 -35 820 C-35 819.34 -35 818.68 -35 818 C-36.98 818 -38.96 818 -41 818 C-41 817.01 -41 816.02 -41 815 C-43.64 815 -46.28 815 -49 815 C-49 814.01 -49 813.02 -49 812 C-50.98 812 -52.96 812 -55 812 C-55 811.01 -55 810.02 -55 809 C-57.64 809 -60.28 809 -63 809 C-63 808.34 -63 807.68 -63 807 C-63.99 806.67 -64.98 806.34 -66 806 C-66 805.34 -66 804.68 -66 804 C-67.65 804 -69.3 804 -71 804 C-71 803.01 -71 802.02 -71 801 C-72.65 801 -74.3 801 -76 801 C-76 800.01 -76 799.02 -76 798 C-77.98 798 -79.96 798 -82 798 C-82 797.34 -82 796.68 -82 796 C-82.99 795.67 -83.98 795.34 -85 795 C-85 794.34 -85 793.68 -85 793 C-85.66 793 -86.32 793 -87 793 C-87 792.01 -87 791.02 -87 790 C-87.99 790 -88.98 790 -90 790 C-90 789.34 -90 788.68 -90 788 C-91.65 787.67 -93.3 787.34 -95 787 C-95 786.34 -95 785.68 -95 785 C-95.99 785 -96.98 785 -98 785 C-98 784.01 -98 783.02 -98 782 C-98.99 782 -99.98 782 -101 782 C-101 781.01 -101 780.02 -101 779 C-101.99 779 -102.98 779 -104 779 C-104 778.34 -104 777.68 -104 777 C-104.66 777 -105.32 777 -106 777 C-106 776.01 -106 775.02 -106 774 C-106.99 774 -107.98 774 -109 774 C-109 773.01 -109 772.02 -109 771 C-109.99 771 -110.98 771 -112 771 C-112 770.01 -112 769.02 -112 768 C-112.99 768 -113.98 768 -115 768 C-115 767.34 -115 766.68 -115 766 C-115.66 766 -116.32 766 -117 766 C-117 765.01 -117 764.02 -117 763 C-117.99 763 -118.98 763 -120 763 C-120 762.01 -120 761.02 -120 760 C-120.99 760 -121.98 760 -123 760 C-123 759.01 -123 758.02 -123 757 C-123.66 757 -124.32 757 -125 757 C-125.33 755.35 -125.66 753.7 -126 752 C-126.66 752 -127.32 752 -128 752 C-128 751.01 -128 750.02 -128 749 C-128.99 749 -129.98 749 -131 749 C-131 747.35 -131 745.7 -131 744 C-131.99 744 -132.98 744 -134 744 C-134 743.01 -134 742.02 -134 741 C-134.66 741 -135.32 741 -136 741 C-136 739.35 -136 737.7 -136 736 C-136.99 736 -137.98 736 -139 736 C-139 735.01 -139 734.02 -139 733 C-139.99 733 -140.98 733 -142 733 C-142 731.02 -142 729.04 -142 727 C-142.99 727 -143.98 727 -145 727 C-145 725.35 -145 723.7 -145 722 C-145.66 722 -146.32 722 -147 722 C-147 720.02 -147 718.04 -147 716 C-147.99 716 -148.98 716 -150 716 C-150 713.36 -150 710.72 -150 708 C-150.99 708 -151.98 708 -153 708 C-153 705.36 -153 702.72 -153 700 C-153.99 700 -154.98 700 -156 700 C-156 697.36 -156 694.72 -156 692 C-156.66 692 -157.32 692 -158 692 C-158 688.37 -158 684.74 -158 681 C-158.99 681 -159.98 681 -161 681 C-161 677.37 -161 673.74 -161 670 C-161.99 670 -162.98 670 -164 670 C-164 509.62 -164 349.24 -164 184 C-164.66 184 -165.32 184 -166 184 C-166 183.01 -166 182.02 -166 181 C-165.34 181 -164.68 181 -164 181 C-164 173.74 -164 166.48 -164 159 C-163.01 159 -162.02 159 -161 159 C-161 155.37 -161 151.74 -161 148 C-160.01 148 -159.02 148 -158 148 C-158 144.37 -158 140.74 -158 137 C-157.34 137 -156.68 137 -156 137 C-156 134.36 -156 131.72 -156 129 C-155.01 129 -154.02 129 -153 129 C-153 126.03 -153 123.06 -153 120 C-152.01 120 -151.02 120 -150 120 C-150 117.36 -150 114.72 -150 112 C-149.01 112 -148.02 112 -147 112 C-147 110.35 -147 108.7 -147 107 C-146.34 107 -145.68 107 -145 107 C-145 105.35 -145 103.7 -145 102 C-143.515 101.505 -143.515 101.505 -142 101 C-142 99.35 -142 97.7 -142 96 C-141.01 96 -140.02 96 -139 96 C-139 95.01 -139 94.02 -139 93 C-138.01 93 -137.02 93 -136 93 C-136 91.35 -136 89.7 -136 88 C-135.34 88 -134.68 88 -134 88 C-134 87.01 -134 86.02 -134 85 C-133.01 85 -132.02 85 -131 85 C-131 83.02 -131 81.04 -131 79 C-130.01 79 -129.02 79 -128 79 C-128 78.34 -128 77.68 -128 77 C-127.34 77 -126.68 77 -126 77 C-125.67 75.02 -125.34 73.04 -125 71 C-124.34 71 -123.68 71 -123 71 C-123 70.34 -123 69.68 -123 69 C-122.01 69 -121.02 69 -120 69 C-120 68.01 -120 67.02 -120 66 C-119.01 66 -118.02 66 -117 66 C-117 65.01 -117 64.02 -117 63 C-116.34 63 -115.68 63 -115 63 C-115 62.01 -115 61.02 -115 60 C-114.01 60 -113.02 60 -112 60 C-112 59.34 -112 58.68 -112 58 C-111.01 58 -110.02 58 -109 58 C-109 57.01 -109 56.02 -109 55 C-108.01 55 -107.02 55 -106 55 C-106 54.01 -106 53.02 -106 52 C-105.34 52 -104.68 52 -104 52 C-104 51.01 -104 50.02 -104 49 C-103.01 49 -102.02 49 -101 49 C-101 48.34 -101 47.68 -101 47 C-100.01 47 -99.02 47 -98 47 C-98 46.01 -98 45.02 -98 44 C-97.01 44 -96.02 44 -95 44 C-95 43.01 -95 42.02 -95 41 C-93.35 41 -91.7 41 -90 41 C-90 40.01 -90 39.02 -90 38 C-89.01 38 -88.02 38 -87 38 C-87 37.34 -87 36.68 -87 36 C-86.34 36 -85.68 36 -85 36 C-84.67 35.01 -84.34 34.02 -84 33 C-82.35 33 -80.7 33 -79 33 C-79 32.01 -79 31.02 -79 30 C-78.01 30 -77.02 30 -76 30 C-76 29.34 -76 28.68 -76 28 C-74.35 28 -72.7 28 -71 28 C-71 27.01 -71 26.02 -71 25 C-70.01 25 -69.02 25 -68 25 C-68 24.01 -68 23.02 -68 22 C-66.35 22 -64.7 22 -63 22 C-62.505 20.515 -62.505 20.515 -62 19 C-60.35 19 -58.7 19 -57 19 C-57 18.34 -57 17.68 -57 17 C-54.36 17 -51.72 17 -49 17 C-49 16.01 -49 15.02 -49 14 C-47.35 14 -45.7 14 -44 14 C-43.67 13.01 -43.34 12.02 -43 11 C-39.7 11 -36.4 11 -33 11 C-33 10.01 -33 9.02 -33 8 C-30.36 8 -27.72 8 -25 8 C-25 7.34 -25 6.68 -25 6 C-20.38 6 -15.76 6 -11 6 C-11 5.01 -11 4.02 -11 3 C-7.37 3 -3.74 3 0 3 C0 2.01 0 1.02 0 0 Z M4 89 C4 89.66 4 90.32 4 91 C0.37 91 -3.26 91 -7 91 C-7 91.99 -7 92.98 -7 94 C-9.64 94 -12.28 94 -15 94 C-15 94.99 -15 95.98 -15 97 C-15.99 97 -16.98 97 -18 97 C-18 97.66 -18 98.32 -18 99 C-19.98 99 -21.96 99 -24 99 C-24 99.99 -24 100.98 -24 102 C-25.65 102 -27.3 102 -29 102 C-29 102.99 -29 103.98 -29 105 C-29.99 105 -30.98 105 -32 105 C-32 105.99 -32 106.98 -32 108 C-33.65 108 -35.3 108 -37 108 C-37 108.66 -37 109.32 -37 110 C-37.99 110 -38.98 110 -40 110 C-40 110.99 -40 111.98 -40 113 C-40.99 113 -41.98 113 -43 113 C-43 113.99 -43 114.98 -43 116 C-44.65 116 -46.3 116 -48 116 C-48 117.65 -48 119.3 -48 121 C-48.99 121 -49.98 121 -51 121 C-51 121.99 -51 122.98 -51 124 C-51.99 124 -52.98 124 -54 124 C-54 124.99 -54 125.98 -54 127 C-54.66 127 -55.32 127 -56 127 C-57.72840348 128.14397385 -57.72840348 128.14397385 -59 130 C-59.25069913 132.62570704 -59.25069913 132.62570704 -59 135 C-59.99 135 -60.98 135 -62 135 C-62 136.65 -62 138.3 -62 140 C-62.99 140 -63.98 140 -65 140 C-65 140.99 -65 141.98 -65 143 C-65.66 143 -66.32 143 -67 143 C-67 144.98 -67 146.96 -67 149 C-67.99 149 -68.98 149 -70 149 C-70 151.64 -70 154.28 -70 157 C-70.99 157 -71.98 157 -73 157 C-73 159.64 -73 162.28 -73 165 C-73.66 165 -74.32 165 -75 165 C-75.33 171.27 -75.66 177.54 -76 184 C-76.66 184 -77.32 184 -78 184 C-78 336.13 -78 488.26 -78 645 C-77.34 645 -76.68 645 -76 645 C-75.67 651.27 -75.34 657.54 -75 664 C-74.34 664 -73.68 664 -73 664 C-73 666.64 -73 669.28 -73 672 C-72.01 672 -71.02 672 -70 672 C-70 674.64 -70 677.28 -70 680 C-69.01 680 -68.02 680 -67 680 C-67 681.98 -67 683.96 -67 686 C-66.34 686 -65.68 686 -65 686 C-65 686.66 -65 687.32 -65 688 C-64.01 688 -63.02 688 -62 688 C-62 689.98 -62 691.96 -62 694 C-61.01 694 -60.02 694 -59 694 C-59 695.65 -59 697.3 -59 699 C-58.01 699 -57.02 699 -56 699 C-56 699.99 -56 700.98 -56 702 C-55.34 702 -54.68 702 -54 702 C-54 702.99 -54 703.98 -54 705 C-53.01 705 -52.02 705 -51 705 C-51 705.66 -51 706.32 -51 707 C-49.66666667 708.66666667 -49.66666667 708.66666667 -48 710 C-47.34 710 -46.68 710 -46 710 C-46 710.99 -46 711.98 -46 713 C-45.01 713 -44.02 713 -43 713 C-43 713.99 -43 714.98 -43 716 C-42.01 716 -41.02 716 -40 716 C-40 716.66 -40 717.32 -40 718 C-39.01 718 -38.02 718 -37 718 C-37 718.99 -37 719.98 -37 721 C-36.34 721 -35.68 721 -35 721 C-35 721.99 -35 722.98 -35 724 C-33.02 724 -31.04 724 -29 724 C-29 724.66 -29 725.32 -29 726 C-27.85602615 727.72840348 -27.85602615 727.72840348 -26 729 C-23.37429296 729.25069913 -23.37429296 729.25069913 -21 729 C-21 729.99 -21 730.98 -21 732 C-18.36 732 -15.72 732 -13 732 C-13 732.99 -13 733.98 -13 735 C-11.02 735 -9.04 735 -7 735 C-7 735.66 -7 736.32 -7 737 C-3.37 737.33 0.26 737.66 4 738 C4 738.66 4 739.32 4 740 C167.35 740 330.7 740 499 740 C499 739.34 499 738.68 499 738 C502.63 737.67 506.26 737.34 510 737 C510 736.34 510 735.68 510 735 C512.64 735 515.28 735 518 735 C518 734.01 518 733.02 518 732 C519.98 732 521.96 732 524 732 C524 731.01 524 730.02 524 729 C525.65 729 527.3 729 529 729 C529 728.34 529 727.68 529 727 C530.98 726.67 532.96 726.34 535 726 C535 725.34 535 724.68 535 724 C535.99 724 536.98 724 538 724 C538 723.01 538 722.02 538 721 C538.66 721 539.32 721 540 721 C540.33 720.34 540.66 719.68 541 719 C543.5625 718.375 543.5625 718.375 546 718 C546 717.34 546 716.68 546 716 C546.66 716 547.32 716 548 716 C548 715.01 548 714.02 548 713 C548.99 713 549.98 713 551 713 C551 712.01 551 711.02 551 710 C551.99 710 552.98 710 554 710 C554 709.01 554 708.02 554 707 C554.99 707 555.98 707 557 707 C557 706.34 557 705.68 557 705 C557.66 705 558.32 705 559 705 C559.0928125 703.88625 559.0928125 703.88625 559.1875 702.75 C560 700 560 700 562.5625 698 C565.29727166 696.22953994 565.29727166 696.22953994 565.3125 693.25 C565.1578125 692.13625 565.1578125 692.13625 565 691 C565.99 691 566.98 691 568 691 C568 690.01 568 689.02 568 688 C568.66 688 569.32 688 570 688 C570 686.35 570 684.7 570 683 C570.99 683 571.98 683 573 683 C573 680.36 573 677.72 573 675 C573.99 675 574.98 675 576 675 C576 672.36 576 669.72 576 667 C576.66 667 577.32 667 578 667 C578.33 663.37 578.66 659.74 579 656 C579.66 656 580.32 656 581 656 C581 497.6 581 339.2 581 176 C580.34 176 579.68 176 579 176 C578.67 171.38 578.34 166.76 578 162 C577.34 162 576.68 162 576 162 C576 159.36 576 156.72 576 154 C575.01 154 574.02 154 573 154 C573 152.35 573 150.7 573 149 C572.34 148.67 571.68 148.34 571 148 C570.40644386 145.35139573 570.25790731 142.70802678 570 140 C569.34 140 568.68 140 568 140 C568 139.34 568 138.68 568 138 C567.01 138 566.02 138 565 138 C565 136.02 565 134.04 565 132 C564.01 132 563.02 132 562 132 C562 131.01 562 130.02 562 129 C561.01 129 560.02 129 559 129 C559 128.34 559 127.68 559 127 C558.34 127 557.68 127 557 127 C557 125.02 557 123.04 557 121 C556.01 121 555.02 121 554 121 C554 120.34 554 119.68 554 119 C553.01 119 552.02 119 551 119 C551 118.01 551 117.02 551 116 C550.01 116 549.02 116 548 116 C548 115.01 548 114.02 548 113 C547.34 113 546.68 113 546 113 C546 112.01 546 111.02 546 110 C544.02 110 542.04 110 540 110 C540 109.34 540 108.68 540 108 C539.34 108 538.68 108 538 108 C538 107.01 538 106.02 538 105 C536.02 105 534.04 105 532 105 C532 104.01 532 103.02 532 102 C530.35 102 528.7 102 527 102 C527 101.01 527 100.02 527 99 C525.02 99 523.04 99 521 99 C521 98.34 521 97.68 521 97 C519.85602615 95.27159652 519.85602615 95.27159652 518 94 C515.37429296 93.74930087 515.37429296 93.74930087 513 94 C513 93.01 513 92.02 513 91 C509.37 91 505.74 91 502 91 C502 90.34 502 89.68 502 89 C337.66 89 173.32 89 4 89 Z " fill="#FEFEFE" transform="translate(166,2)"/>
<path d="M0 0 C18.15 0 36.3 0 55 0 C55 0.99 55 1.98 55 3 C61.27 3 67.54 3 74 3 C74 3.99 74 4.98 74 6 C77.63 6 81.26 6 85 6 C85 6.66 85 7.32 85 8 C86.98567708 7.96744792 88.97135417 7.93489583 90.95703125 7.90234375 C93 8 93 8 96 9 C96 9.66 96 10.32 96 11 C98.64 11 101.28 11 104 11 C104 11.99 104 12.98 104 14 C105.98 14 107.96 14 110 14 C110 14.99 110 15.98 110 17 C112.64 17 115.28 17 118 17 C118 17.66 118 18.32 118 19 C118.99 19 119.98 19 121 19 C121 19.99 121 20.98 121 22 C122.65 22 124.3 22 126 22 C126 22.99 126 23.98 126 25 C128.64 25 131.28 25 134 25 C134 25.99 134 26.98 134 28 C134.99 28 135.98 28 137 28 C137 28.66 137 29.32 137 30 C138.65 30 140.3 30 142 30 C142.33 30.99 142.66 31.98 143 33 C144.65 33 146.3 33 148 33 C148 33.99 148 34.98 148 36 C148.99 36 149.98 36 151 36 C151 36.99 151 37.98 151 39 C151.99 39 152.98 39 154 39 C154 39.66 154 40.32 154 41 C155.65 41 157.3 41 159 41 C159 41.99 159 42.98 159 44 C159.99 44 160.98 44 162 44 C162 44.99 162 45.98 162 47 C162.66 47 163.32 47 164 47 C164 47.66 164 48.32 164 49 C165.98 49.33 167.96 49.66 170 50 C170 50.66 170 51.32 170 52 C170.99 52.33 171.98 52.66 173 53 C173 53.66 173 54.32 173 55 C173.66 55 174.32 55 175 55 C175 55.99 175 56.98 175 58 C175.99 58 176.98 58 178 58 C178 58.66 178 59.32 178 60 C178.99 60 179.98 60 181 60 C181 60.99 181 61.98 181 63 C181.66 63 182.32 63 183 63 C183 63.99 183 64.98 183 66 C183.99 66 184.98 66 186 66 C186 66.99 186 67.98 186 69 C186.99 69 187.98 69 189 69 C189 69.66 189 70.32 189 71 C189.99 71 190.98 71 192 71 C192 71.99 192 72.98 192 74 C192.66 74 193.32 74 194 74 C194 74.99 194 75.98 194 77 C194.99 77 195.98 77 197 77 C197 78.65 197 80.3 197 82 C197.99 82 198.98 82 200 82 C200 82.99 200 83.98 200 85 C200.99 85 201.98 85 203 85 C203 85.99 203 86.98 203 88 C203.66 88 204.32 88 205 88 C205 89.65 205 91.3 205 93 C205.99 93 206.98 93 208 93 C208 93.99 208 94.98 208 96 C208.99 96 209.98 96 211 96 C211 97.65 211 99.3 211 101 C211.99 101.33 212.98 101.66 214 102 C214 102.66 214 103.32 214 104 C214.66 104 215.32 104 216 104 C216 105.98 216 107.96 216 110 C216.99 110 217.98 110 219 110 C219 111.65 219 113.3 219 115 C219.99 115 220.98 115 222 115 C222 116.65 222 118.3 222 120 C222.66 120 223.32 120 224 120 C224 121.98 224 123.96 224 126 C224.99 126 225.98 126 227 126 C227 128.64 227 131.28 227 134 C227.99 134 228.98 134 230 134 C230 135.98 230 137.96 230 140 C230.99 140 231.98 140 233 140 C233 142.64 233 145.28 233 148 C233.66 148 234.32 148 235 148 C235 150.64 235 153.28 235 156 C235.99 156 236.98 156 238 156 C238 159.63 238 163.26 238 167 C238.99 167 239.98 167 241 167 C241 171.62 241 176.24 241 181 C241.99 181 242.98 181 244 181 C244.02315806 189.55351574 244.04093279 198.10701841 244.05181217 206.66055775 C244.0570334 210.63219624 244.0641173 214.6038133 244.07543945 218.57543945 C244.08629527 222.40741372 244.09228257 226.23936736 244.09487724 230.07135582 C244.09672662 231.53420016 244.10033792 232.99704335 244.10573006 234.45987892 C244.11297622 236.50688757 244.11398943 238.55381069 244.11352539 240.60083008 C244.115746 241.76665115 244.11796661 242.93247223 244.12025452 244.13362122 C244 247 244 247 243 250 C242.34 250 241.68 250 241 250 C241 254.29 241 258.58 241 263 C240.01 263 239.02 263 238 263 C238 266.63 238 270.26 238 274 C237.01 274 236.02 274 235 274 C235 276.64 235 279.28 235 282 C234.34 282 233.68 282 233 282 C233 283.98 233 285.96 233 288 C232.01 288 231.02 288 230 288 C230 290.64 230 293.28 230 296 C229.01 296 228.02 296 227 296 C227 298.64 227 301.28 227 304 C226.01 304 225.02 304 224 304 C224 305.98 224 307.96 224 310 C223.34 310 222.68 310 222 310 C222 311.65 222 313.3 222 315 C221.01 315 220.02 315 219 315 C219 316.98 219 318.96 219 321 C218.01 321 217.02 321 216 321 C216 322.65 216 324.3 216 326 C215.34 326 214.68 326 214 326 C213.67 326.99 213.34 327.98 213 329 C212.34 329 211.68 329 211 329 C211 329.99 211 330.98 211 332 C210.01 332 209.02 332 208 332 C208 333.65 208 335.3 208 337 C207.01 337 206.02 337 205 337 C205 338.65 205 340.3 205 342 C204.34 342 203.68 342 203 342 C203 342.99 203 343.98 203 345 C202.01 345 201.02 345 200 345 C200 345.99 200 346.98 200 348 C199.01 348 198.02 348 197 348 C197 348.99 197 349.98 197 351 C196.01 351 195.02 351 194 351 C194 352.65 194 354.3 194 356 C193.34 356 192.68 356 192 356 C191.67 356.99 191.34 357.98 191 359 C190.34 359 189.68 359 189 359 C189 359.99 189 360.98 189 362 C188.01 362 187.02 362 186 362 C186 362.66 186 363.32 186 364 C185.01 364 184.02 364 183 364 C183 364.99 183 365.98 183 367 C182.34 367 181.68 367 181 367 C181 367.99 181 368.98 181 370 C180.01 370 179.02 370 178 370 C178 370.99 178 371.98 178 373 C177.01 373 176.02 373 175 373 C175 373.66 175 374.32 175 375 C174.01 375 173.02 375 172 375 C172 375.99 172 376.98 172 378 C171.34 378 170.68 378 170 378 C169.67 378.99 169.34 379.98 169 381 C167.35 381 165.7 381 164 381 C164 381.66 164 382.32 164 383 C163.34 383 162.68 383 162 383 C162 383.99 162 384.98 162 386 C161.01 386 160.02 386 159 386 C159 386.99 159 387.98 159 389 C157.35 389 155.7 389 154 389 C153.67 389.99 153.34 390.98 153 392 C152.34 392 151.68 392 151 392 C151 392.66 151 393.32 151 394 C149.02 394 147.04 394 145 394 C145 394.99 145 395.98 145 397 C144.01 397 143.02 397 142 397 C142 397.99 142 398.98 142 400 C140.35 400 138.7 400 137 400 C137 400.99 137 401.98 137 403 C135.35 403 133.7 403 132 403 C132 403.66 132 404.32 132 405 C130.02 405 128.04 405 126 405 C126 405.99 126 406.98 126 408 C124.35 408 122.7 408 121 408 C121 408.99 121 409.98 121 411 C119.02 411 117.04 411 115 411 C115 411.66 115 412.32 115 413 C112.29120665 414.35439668 109.99066732 414.06501451 107 414 C107 414.66 107 415.32 107 416 C104.36 416 101.72 416 99 416 C99 416.99 99 417.98 99 419 C98.01 419 97.02 419 96 419 C96 419.99 96 420.98 96 422 C92.37 422 88.74 422 85 422 C85 422.66 85 423.32 85 424 C81.37 424 77.74 424 74 424 C74 424.99 74 425.98 74 427 C67.73 427 61.46 427 55 427 C55 427.99 55 428.98 55 430 C36.85 430 18.7 430 0 430 C0 429.01 0 428.02 0 427 C-5.61 427 -11.22 427 -17 427 C-17 426.01 -17 425.02 -17 424 C-21.29 424 -25.58 424 -30 424 C-30 423.34 -30 422.68 -30 422 C-32.64 422 -35.28 422 -38 422 C-38 421.01 -38 420.02 -38 419 C-39.98 419 -41.96 419 -44 419 C-44 418.01 -44 417.02 -44 416 C-46.64 416 -49.28 416 -52 416 C-52 415.34 -52 414.68 -52 414 C-53.65 414 -55.3 414 -57 414 C-57.33 413.01 -57.66 412.02 -58 411 C-60.64 411 -63.28 411 -66 411 C-66 410.01 -66 409.02 -66 408 C-67.65 408 -69.3 408 -71 408 C-71 407.01 -71 406.02 -71 405 C-72.98 405 -74.96 405 -77 405 C-77 404.34 -77 403.68 -77 403 C-78.65 402.67 -80.3 402.34 -82 402 C-82 401.34 -82 400.68 -82 400 C-83.65 400 -85.3 400 -87 400 C-87 399.01 -87 398.02 -87 397 C-87.99 397 -88.98 397 -90 397 C-90 396.01 -90 395.02 -90 394 C-90.99 394 -91.98 394 -93 394 C-93 393.34 -93 392.68 -93 392 C-94.65 392 -96.3 392 -98 392 C-98 391.01 -98 390.02 -98 389 C-98.99 389 -99.98 389 -101 389 C-101 388.01 -101 387.02 -101 386 C-101.99 386 -102.98 386 -104 386 C-104 385.01 -104 384.02 -104 383 C-105.65 383 -107.3 383 -109 383 C-109 382.34 -109 381.68 -109 381 C-109.99 381 -110.98 381 -112 381 C-112 380.01 -112 379.02 -112 378 C-112.99 378 -113.98 378 -115 378 C-115 377.01 -115 376.02 -115 375 C-115.99 375 -116.98 375 -118 375 C-118 374.34 -118 373.68 -118 373 C-118.66 373 -119.32 373 -120 373 C-120 372.01 -120 371.02 -120 370 C-121.2065625 370.0309375 -121.2065625 370.0309375 -122.4375 370.0625 C-125 370 -125 370 -126 369 C-126.04063832 367.33382885 -126.042721 365.66611905 -126 364 C-126.99 364 -127.98 364 -129 364 C-129 363.34 -129 362.68 -129 362 C-129.66 362 -130.32 362 -131 362 C-131 361.01 -131 360.02 -131 359 C-131.99 359 -132.98 359 -134 359 C-134 358.01 -134 357.02 -134 356 C-134.99 356 -135.98 356 -137 356 C-137 355.01 -137 354.02 -137 353 C-137.66 353 -138.32 353 -139 353 C-139 352.34 -139 351.68 -139 351 C-139.99 351 -140.98 351 -142 351 C-142 349.02 -142 347.04 -142 345 C-142.99 345 -143.98 345 -145 345 C-145 344.34 -145 343.68 -145 343 C-145.99 342.67 -146.98 342.34 -148 342 C-148 341.34 -148 340.68 -148 340 C-148.66 340 -149.32 340 -150 340 C-150 339.01 -150 338.02 -150 337 C-150.99 337 -151.98 337 -153 337 C-153 335.35 -153 333.7 -153 332 C-153.99 331.67 -154.98 331.34 -156 331 C-156 329.35 -156 327.7 -156 326 C-156.99 326 -157.98 326 -159 326 C-159 324.35 -159 322.7 -159 321 C-159.66 321 -160.32 321 -161 321 C-161 320.01 -161 319.02 -161 318 C-161.99 318 -162.98 318 -164 318 C-164 315.36 -164 312.72 -164 310 C-164.99 310 -165.98 310 -167 310 C-167 309.01 -167 308.02 -167 307 C-167.66 307 -168.32 307 -169 307 C-169 305.02 -169 303.04 -169 301 C-169.99 301 -170.98 301 -172 301 C-172 299.35 -172 297.7 -172 296 C-172.99 296 -173.98 296 -175 296 C-175 295.01 -175 294.02 -175 293 C-175.99 293 -176.98 293 -178 293 C-178 292.01 -178 291.02 -178 290 C-177.01 290 -176.02 290 -175 290 C-175 288.35 -175 286.7 -175 285 C-175.99 285 -176.98 285 -178 285 C-178 282.36 -178 279.72 -178 277 C-178.66 277 -179.32 277 -180 277 C-180 274.36 -180 271.72 -180 269 C-180.99 269 -181.98 269 -183 269 C-183 264.38 -183 259.76 -183 255 C-183.99 255 -184.98 255 -186 255 C-186 247.08 -186 239.16 -186 231 C-186.99 230.67 -187.98 230.34 -189 230 C-189 222.08 -189 214.16 -189 206 C-189.66 206 -190.32 206 -191 206 C-191 204.68 -191 203.36 -191 202 C-190.34 202 -189.68 202 -189 202 C-189 201.34 -189 200.68 -189 200 C-188.01 200 -187.02 200 -186 200 C-186 196.7 -186 193.4 -186 190 C-186.66 190 -187.32 190 -188 190 C-188 188.68 -188 187.36 -188 186 C-187.34 186 -186.68 186 -186 186 C-186 182.37 -186 178.74 -186 175 C-185.01 175 -184.02 175 -183 175 C-183 170.71 -183 166.42 -183 162 C-182.01 161.67 -181.02 161.34 -180 161 C-180 156.71 -180 152.42 -180 148 C-179.34 148 -178.68 148 -178 148 C-178 146.35 -178 144.7 -178 143 C-177.01 142.67 -176.02 142.34 -175 142 C-175 139.36 -175 136.72 -175 134 C-174.01 134 -173.02 134 -172 134 C-172 132.35 -172 130.7 -172 129 C-171.01 129 -170.02 129 -169 129 C-169 126.36 -169 123.72 -169 121 C-168.34 121 -167.68 121 -167 121 C-167 120.01 -167 119.02 -167 118 C-166.01 118 -165.02 118 -164 118 C-164 116.02 -164 114.04 -164 112 C-163.01 112 -162.02 112 -161 112 C-161 110.35 -161 108.7 -161 107 C-160.34 107 -159.68 107 -159 107 C-159 106.01 -159 105.02 -159 104 C-158.01 104 -157.02 104 -156 104 C-156 102.35 -156 100.7 -156 99 C-155.01 99 -154.02 99 -153 99 C-153 97.02 -153 95.04 -153 93 C-152.01 93 -151.02 93 -150 93 C-150 92.01 -150 91.02 -150 90 C-149.34 90 -148.68 90 -148 90 C-148 89.34 -148 88.68 -148 88 C-147.01 88 -146.02 88 -145 88 C-145 86.02 -145 84.04 -145 82 C-144.01 82 -143.02 82 -142 82 C-141.505 80.515 -141.505 80.515 -141 79 C-140.34 79 -139.68 79 -139 79 C-139 78.34 -139 77.68 -139 77 C-138.34 77 -137.68 77 -137 77 C-137 76.01 -137 75.02 -137 74 C-136.01 74 -135.02 74 -134 74 C-134 73.01 -134 72.02 -134 71 C-133.01 71 -132.02 71 -131 71 C-131 69.35 -131 67.7 -131 66 C-129.35 66 -127.7 66 -126 66 C-126 65.01 -126 64.02 -126 63 C-125.01 63 -124.02 63 -123 63 C-123 62.01 -123 61.02 -123 60 C-122.01 60 -121.02 60 -120 60 C-120 59.34 -120 58.68 -120 58 C-119.34 58 -118.68 58 -118 58 C-118 57.01 -118 56.02 -118 55 C-117.01 55 -116.02 55 -115 55 C-115 54.01 -115 53.02 -115 52 C-114.01 52 -113.02 52 -112 52 C-112 51.01 -112 50.02 -112 49 C-111.01 49 -110.02 49 -109 49 C-109 48.34 -109 47.68 -109 47 C-108.34 47 -107.68 47 -107 47 C-106.67 46.01 -106.34 45.02 -106 44 C-104.35 44 -102.7 44 -101 44 C-101 43.01 -101 42.02 -101 41 C-100.01 41 -99.02 41 -98 41 C-98 40.34 -98 39.68 -98 39 C-97.34 39 -96.68 39 -96 39 C-96 38.01 -96 37.02 -96 36 C-95.01 36 -94.02 36 -93 36 C-93 35.01 -93 34.02 -93 33 C-91.02 33 -89.04 33 -87 33 C-87 32.01 -87 31.02 -87 30 C-85.35 30 -83.7 30 -82 30 C-82 29.34 -82 28.68 -82 28 C-80.35 28 -78.7 28 -77 28 C-77 27.01 -77 26.02 -77 25 C-75.02 25 -73.04 25 -71 25 C-71 24.01 -71 23.02 -71 22 C-69.35 22 -67.7 22 -66 22 C-65.505 20.515 -65.505 20.515 -65 19 C-63.35 19 -61.7 19 -60 19 C-60 18.34 -60 17.68 -60 17 C-58.35 17 -56.7 17 -55 17 C-55 16.01 -55 15.02 -55 14 C-52.36 14 -49.72 14 -47 14 C-47 13.01 -47 12.02 -47 11 C-44.03 11 -41.06 11 -38 11 C-38 10.34 -38 9.68 -38 9 C-35.29120665 7.64560332 -32.99066732 7.93498549 -30 8 C-30 7.34 -30 6.68 -30 6 C-25.71 6 -21.42 6 -17 6 C-17 5.01 -17 4.02 -17 3 C-11.39 3 -5.78 3 0 3 C0 2.01 0 1.02 0 0 Z M12 86 C11.67 86.66 11.34 87.32 11 88 C8.05859375 88.4140625 8.05859375 88.4140625 4.4375 88.625 C3.23996094 88.69976562 2.04242188 88.77453125 0.80859375 88.8515625 C-0.11824219 88.90054688 -1.04507813 88.94953125 -2 89 C-2 89.66 -2 90.32 -2 91 C-4.64 91 -7.28 91 -10 91 C-10 91.99 -10 92.98 -10 94 C-12.64 94 -15.28 94 -18 94 C-18.33 94.66 -18.66 95.32 -19 96 C-20.66666667 96.33333333 -22.33333333 96.66666667 -24 97 C-24.33 97.66 -24.66 98.32 -25 99 C-27.0625 99.625 -27.0625 99.625 -29 100 C-29 100.66 -29 101.32 -29 102 C-30.98 102 -32.96 102 -35 102 C-35 102.99 -35 103.98 -35 105 C-36.65 105 -38.3 105 -40 105 C-40 105.99 -40 106.98 -40 108 C-40.99 108 -41.98 108 -43 108 C-43 108.66 -43 109.32 -43 110 C-44.65 110 -46.3 110 -48 110 C-48 110.99 -48 111.98 -48 113 C-48.99 113 -49.98 113 -51 113 C-51 113.99 -51 114.98 -51 116 C-51.99 116 -52.98 116 -54 116 C-55.72943475 117.31267956 -55.72943475 117.31267956 -57 119 C-57 119.66 -57 120.32 -57 121 C-58.65 121 -60.3 121 -62 121 C-62 121.99 -62 122.98 -62 124 C-62.99 124 -63.98 124 -65 124 C-65 124.99 -65 125.98 -65 127 C-65.99 127 -66.98 127 -68 127 C-68 128.65 -68 130.3 -68 132 C-68.66 132 -69.32 132 -70 132 C-70 132.99 -70 133.98 -70 135 C-70.99 135 -71.98 135 -73 135 C-73 135.99 -73 136.98 -73 138 C-73.99 138 -74.98 138 -76 138 C-76 138.66 -76 139.32 -76 140 C-76.66 140 -77.32 140 -78 140 C-78.12375 140.804375 -78.2475 141.60875 -78.375 142.4375 C-78.684375 143.7059375 -78.684375 143.7059375 -79 145 C-79.99 145.495 -79.99 145.495 -81 146 C-81 146.99 -81 147.98 -81 149 C-81.99 149 -82.98 149 -84 149 C-84 150.65 -84 152.3 -84 154 C-84.99 154 -85.98 154 -87 154 C-87 155.98 -87 157.96 -87 160 C-87.66 160 -88.32 160 -89 160 C-89.12375 161.134375 -89.2475 162.26875 -89.375 163.4375 C-89.58125 164.613125 -89.7875 165.78875 -90 167 C-90.99 167.495 -90.99 167.495 -92 168 C-92 169.65 -92 171.3 -92 173 C-92.99 173 -93.98 173 -95 173 C-95 174.98 -95 176.96 -95 179 C-95.99 179 -96.98 179 -98 179 C-98 183.29 -98 187.58 -98 192 C-98.66 192 -99.32 192 -100 192 C-100 207.18 -100 222.36 -100 238 C-99.34 238 -98.68 238 -98 238 C-98 241.63 -98 245.26 -98 249 C-97.01 249 -96.02 249 -95 249 C-95 251.64 -95 254.28 -95 257 C-94.01 257 -93.02 257 -92 257 C-92 258.65 -92 260.3 -92 262 C-91.01 262.33 -90.02 262.66 -89 263 C-89 265.64 -89 268.28 -89 271 C-88.34 271 -87.68 271 -87 271 C-87 272.65 -87 274.3 -87 276 C-86.01 276 -85.02 276 -84 276 C-84 276.99 -84 277.98 -84 279 C-83.01 279 -82.02 279 -81 279 C-81 280.65 -81 282.3 -81 284 C-80.34 284.33 -79.68 284.66 -79 285 C-78.375 287.5625 -78.375 287.5625 -78 290 C-77.34 290 -76.68 290 -76 290 C-76 290.66 -76 291.32 -76 292 C-75.01 292 -74.02 292 -73 292 C-73 292.99 -73 293.98 -73 295 C-72.01 295 -71.02 295 -70 295 C-70 295.99 -70 296.98 -70 298 C-69.34 298 -68.68 298 -68 298 C-68 298.99 -68 299.98 -68 301 C-67.01 301 -66.02 301 -65 301 C-65 301.66 -65 302.32 -65 303 C-63.34997172 304.35386936 -61.6825613 305.68678142 -60 307 C-59.67 307.66 -59.34 308.32 -59 309 C-58.34 309 -57.68 309 -57 309 C-57 309.99 -57 310.98 -57 312 C-56.01 312 -55.02 312 -54 312 C-54 312.66 -54 313.32 -54 314 C-53.01 314 -52.02 314 -51 314 C-51 314.99 -51 315.98 -51 317 C-49.35 317 -47.7 317 -46 317 C-46 317.99 -46 318.98 -46 320 C-45.01 320 -44.02 320 -43 320 C-43 320.66 -43 321.32 -43 322 C-42.01 322 -41.02 322 -40 322 C-40 322.99 -40 323.98 -40 325 C-38.35 325 -36.7 325 -35 325 C-35 325.99 -35 326.98 -35 328 C-33.02 328 -31.04 328 -29 328 C-29 328.99 -29 329.98 -29 331 C-27.35 331 -25.7 331 -24 331 C-24 331.66 -24 332.32 -24 333 C-22.865625 333.12375 -21.73125 333.2475 -20.5625 333.375 C-19.386875 333.58125 -18.21125 333.7875 -17 334 C-16.67 334.66 -16.34 335.32 -16 336 C-14.02 336 -12.04 336 -10 336 C-10 336.99 -10 337.98 -10 339 C-5.71 339 -1.42 339 3 339 C3 339.99 3 340.98 3 342 C19.83 342 36.66 342 54 342 C54 341.01 54 340.02 54 339 C57.63 339 61.26 339 65 339 C65 338.01 65 337.02 65 336 C67.64 336 70.28 336 73 336 C73.33 335.34 73.66 334.68 74 334 C76.64860427 333.40644386 79.29197322 333.25790731 82 333 C82 332.34 82 331.68 82 331 C83.65 331 85.3 331 87 331 C87 330.01 87 329.02 87 328 C88.98 328 90.96 328 93 328 C93 327.01 93 326.02 93 325 C93.66 325 94.32 325 95 325 C95 324.34 95 323.68 95 323 C96.98 322.67 98.96 322.34 101 322 C101 321.34 101 320.68 101 320 C101.66 320 102.32 320 103 320 C103 319.01 103 318.02 103 317 C103.99 317 104.98 317 106 317 C107.72943475 315.68732044 107.72943475 315.68732044 109 314 C109 313.34 109 312.68 109 312 C110.65 312 112.3 312 114 312 C114 311.01 114 310.02 114 309 C114.99 309 115.98 309 117 309 C117 308.01 117 307.02 117 306 C117.99 306 118.98 306 120 306 C120 305.01 120 304.02 120 303 C120.99 303 121.98 303 123 303 C123 302.34 123 301.68 123 301 C123.66 301 124.32 301 125 301 C125 300.01 125 299.02 125 298 C125.99 298 126.98 298 128 298 C128 296.35 128 294.7 128 293 C128.99 293 129.98 293 131 293 C131 292.01 131 291.02 131 290 C131.66 290 132.32 290 133 290 C133 289.01 133 288.02 133 287 C133.99 287 134.98 287 136 287 C136 285.35 136 283.7 136 282 C136.99 282 137.98 282 139 282 C139 281.01 139 280.02 139 279 C139.99 279 140.98 279 142 279 C142 277.02 142 275.04 142 273 C142.66 273 143.32 273 144 273 C144 271.35 144 269.7 144 268 C144.99 268 145.98 268 147 268 C147 265.36 147 262.72 147 260 C147.99 260 148.98 260 150 260 C150 258.02 150 256.04 150 254 C150.99 254 151.98 254 153 254 C153 250.37 153 246.74 153 243 C153.66 243 154.32 243 155 243 C155.33 237.06 155.66 231.12 156 225 C156.66 224.67 157.32 224.34 158 224 C158 218.06 158 212.12 158 206 C157.01 206 156.02 206 155 206 C155 200.72 155 195.44 155 190 C154.34 190 153.68 190 153 190 C153 185.38 153 180.76 153 176 C152.01 176 151.02 176 150 176 C150 173.36 150 170.72 150 168 C149.01 168 148.02 168 147 168 C147 166.02 147 164.04 147 162 C146.01 162 145.02 162 144 162 C144 160.35 144 158.7 144 157 C143.34 157 142.68 157 142 157 C142 155.02 142 153.04 142 151 C141.01 151 140.02 151 139 151 C139 150.34 139 149.68 139 149 C138.34 148.67 137.68 148.34 137 148 C136.375 145.4375 136.375 145.4375 136 143 C135.01 143 134.02 143 133 143 C133 142.01 133 141.02 133 140 C132.34 140 131.68 140 131 140 C131 138.35 131 136.7 131 135 C130.01 135 129.02 135 128 135 C128 134.01 128 133.02 128 132 C127.01 132 126.02 132 125 132 C125 131.34 125 130.68 125 130 C123.35 129.67 121.7 129.34 120 129 C120 127.35 120 125.7 120 124 C119.01 124 118.02 124 117 124 C117 123.01 117 122.02 117 121 C116.01 121 115.02 121 114 121 C114 120.34 114 119.68 114 119 C113.34 119 112.68 119 112 119 C112 118.01 112 117.02 112 116 C110.02 116 108.04 116 106 116 C106 115.01 106 114.02 106 113 C105.34 113 104.68 113 104 113 C104 112.01 104 111.02 104 110 C103.01 110 102.02 110 101 110 C101 109.34 101 108.68 101 108 C100.01 108 99.02 108 98 108 C98 107.01 98 106.02 98 105 C96.35 105 94.7 105 93 105 C93 104.01 93 103.02 93 102 C90.03 102 87.06 102 84 102 C84 101.34 84 100.68 84 100 C83.34 100 82.68 100 82 100 C82 99.01 82 98.02 82 97 C79.36 97 76.72 97 74 97 C74 96.01 74 95.02 74 94 C71.03 94 68.06 94 65 94 C65 93.01 65 92.02 65 91 C63.35 91 61.7 91 60 91 C60 90.34 60 89.68 60 89 C58.28490234 88.92652344 58.28490234 88.92652344 56.53515625 88.8515625 C55.04424527 88.77654811 53.55336108 88.70099972 52.0625 88.625 C50.93038086 88.57859375 50.93038086 88.57859375 49.77539062 88.53125 C47.84492605 88.4273685 45.92057919 88.22104386 44 88 C43.67 87.34 43.34 86.68 43 86 C32.77 86 22.54 86 12 86 Z " fill="#FEFEFE" transform="translate(390,204)"/>
<path d="M0 0 C0.75183563 0.00141495 1.50367126 0.0028299 2.27828979 0.00428772 C4.6829626 0.0098916 7.08754277 0.02244468 9.4921875 0.03515625 C11.12109241 0.04017075 12.74999877 0.04473375 14.37890625 0.04882812 C18.37503577 0.05986228 22.37109592 0.07712946 26.3671875 0.09765625 C26.3671875 1.08765625 26.3671875 2.07765625 26.3671875 3.09765625 C29.0071875 3.09765625 31.6471875 3.09765625 34.3671875 3.09765625 C34.3671875 4.08765625 34.3671875 5.07765625 34.3671875 6.09765625 C35.3571875 6.09765625 36.3471875 6.09765625 37.3671875 6.09765625 C37.3671875 7.08765625 37.3671875 8.07765625 37.3671875 9.09765625 C39.0171875 9.09765625 40.6671875 9.09765625 42.3671875 9.09765625 C42.3671875 9.75765625 42.3671875 10.41765625 42.3671875 11.09765625 C43.3571875 11.09765625 44.3471875 11.09765625 45.3671875 11.09765625 C45.3671875 12.08765625 45.3671875 13.07765625 45.3671875 14.09765625 C46.3571875 14.09765625 47.3471875 14.09765625 48.3671875 14.09765625 C48.3671875 15.08765625 48.3671875 16.07765625 48.3671875 17.09765625 C49.3571875 17.09765625 50.3471875 17.09765625 51.3671875 17.09765625 C51.3671875 18.08765625 51.3671875 19.07765625 51.3671875 20.09765625 C52.0271875 20.09765625 52.6871875 20.09765625 53.3671875 20.09765625 C53.3671875 20.75765625 53.3671875 21.41765625 53.3671875 22.09765625 C54.3571875 22.09765625 55.3471875 22.09765625 56.3671875 22.09765625 C56.3671875 24.07765625 56.3671875 26.05765625 56.3671875 28.09765625 C57.3571875 28.09765625 58.3471875 28.09765625 59.3671875 28.09765625 C59.3671875 29.08765625 59.3671875 30.07765625 59.3671875 31.09765625 C60.0271875 31.09765625 60.6871875 31.09765625 61.3671875 31.09765625 C62.72158418 33.8064496 62.43220201 36.10698893 62.3671875 39.09765625 C63.0271875 39.09765625 63.6871875 39.09765625 64.3671875 39.09765625 C64.3671875 49.98765625 64.3671875 60.87765625 64.3671875 72.09765625 C63.7071875 72.09765625 63.0471875 72.09765625 62.3671875 72.09765625 C62.3671875 74.73765625 62.3671875 77.37765625 62.3671875 80.09765625 C60.8821875 80.59265625 60.8821875 80.59265625 59.3671875 81.09765625 C59.3671875 82.74765625 59.3671875 84.39765625 59.3671875 86.09765625 C58.3771875 86.09765625 57.3871875 86.09765625 56.3671875 86.09765625 C56.3671875 87.08765625 56.3671875 88.07765625 56.3671875 89.09765625 C55.3771875 89.09765625 54.3871875 89.09765625 53.3671875 89.09765625 C53.3671875 89.75765625 53.3671875 90.41765625 53.3671875 91.09765625 C52.7071875 91.09765625 52.0471875 91.09765625 51.3671875 91.09765625 C51.3671875 92.08765625 51.3671875 93.07765625 51.3671875 94.09765625 C50.3771875 94.09765625 49.3871875 94.09765625 48.3671875 94.09765625 C48.3671875 95.08765625 48.3671875 96.07765625 48.3671875 97.09765625 C47.3771875 97.09765625 46.3871875 97.09765625 45.3671875 97.09765625 C45.3671875 98.08765625 45.3671875 99.07765625 45.3671875 100.09765625 C44.3771875 100.09765625 43.3871875 100.09765625 42.3671875 100.09765625 C42.3671875 100.75765625 42.3671875 101.41765625 42.3671875 102.09765625 C41.7071875 102.09765625 41.0471875 102.09765625 40.3671875 102.09765625 C40.3671875 103.08765625 40.3671875 104.07765625 40.3671875 105.09765625 C38.3871875 105.09765625 36.4071875 105.09765625 34.3671875 105.09765625 C34.3671875 106.08765625 34.3671875 107.07765625 34.3671875 108.09765625 C32.7171875 108.09765625 31.0671875 108.09765625 29.3671875 108.09765625 C29.3671875 108.75765625 29.3671875 109.41765625 29.3671875 110.09765625 C26.21787857 111.14742589 23.97904294 111.1989722 20.6796875 111.16015625 C19.68582031 111.15113281 18.69195313 111.14210938 17.66796875 111.1328125 C16.90871094 111.12121094 16.14945313 111.10960937 15.3671875 111.09765625 C15.3671875 111.75765625 15.3671875 112.41765625 15.3671875 113.09765625 C10.7471875 113.09765625 6.1271875 113.09765625 1.3671875 113.09765625 C1.3671875 112.43765625 1.3671875 111.77765625 1.3671875 111.09765625 C-2.2628125 111.09765625 -5.8928125 111.09765625 -9.6328125 111.09765625 C-9.6328125 110.10765625 -9.6328125 109.11765625 -9.6328125 108.09765625 C-12.2728125 108.09765625 -14.9128125 108.09765625 -17.6328125 108.09765625 C-17.6328125 107.10765625 -17.6328125 106.11765625 -17.6328125 105.09765625 C-19.6128125 105.09765625 -21.5928125 105.09765625 -23.6328125 105.09765625 C-23.6328125 104.10765625 -23.6328125 103.11765625 -23.6328125 102.09765625 C-24.6228125 102.09765625 -25.6128125 102.09765625 -26.6328125 102.09765625 C-26.6328125 101.43765625 -26.6328125 100.77765625 -26.6328125 100.09765625 C-27.2928125 100.09765625 -27.9528125 100.09765625 -28.6328125 100.09765625 C-28.6328125 99.10765625 -28.6328125 98.11765625 -28.6328125 97.09765625 C-29.6228125 97.09765625 -30.6128125 97.09765625 -31.6328125 97.09765625 C-31.6328125 96.10765625 -31.6328125 95.11765625 -31.6328125 94.09765625 C-32.6228125 94.09765625 -33.6128125 94.09765625 -34.6328125 94.09765625 C-34.6328125 93.10765625 -34.6328125 92.11765625 -34.6328125 91.09765625 C-35.6228125 91.09765625 -36.6128125 91.09765625 -37.6328125 91.09765625 C-37.6328125 90.43765625 -37.6328125 89.77765625 -37.6328125 89.09765625 C-38.2928125 89.09765625 -38.9528125 89.09765625 -39.6328125 89.09765625 C-39.6328125 87.11765625 -39.6328125 85.13765625 -39.6328125 83.09765625 C-40.6228125 83.09765625 -41.6128125 83.09765625 -42.6328125 83.09765625 C-42.6328125 81.44765625 -42.6328125 79.79765625 -42.6328125 78.09765625 C-43.6228125 78.09765625 -44.6128125 78.09765625 -45.6328125 78.09765625 C-45.6328125 75.45765625 -45.6328125 72.81765625 -45.6328125 70.09765625 C-46.2928125 70.09765625 -46.9528125 70.09765625 -47.6328125 70.09765625 C-47.6328125 69.10765625 -47.6328125 68.11765625 -47.6328125 67.09765625 C-48.6228125 67.09765625 -49.6128125 67.09765625 -50.6328125 67.09765625 C-50.6328125 65.77765625 -50.6328125 64.45765625 -50.6328125 63.09765625 C-49.9728125 63.09765625 -49.3128125 63.09765625 -48.6328125 63.09765625 C-48.6328125 57.15765625 -48.6328125 51.21765625 -48.6328125 45.09765625 C-47.1478125 44.60265625 -47.1478125 44.60265625 -45.6328125 44.09765625 C-45.6328125 40.79765625 -45.6328125 37.49765625 -45.6328125 34.09765625 C-44.1478125 33.60265625 -44.1478125 33.60265625 -42.6328125 33.09765625 C-42.6328125 31.44765625 -42.6328125 29.79765625 -42.6328125 28.09765625 C-41.6428125 28.09765625 -40.6528125 28.09765625 -39.6328125 28.09765625 C-39.6328125 27.10765625 -39.6328125 26.11765625 -39.6328125 25.09765625 C-38.9728125 25.09765625 -38.3128125 25.09765625 -37.6328125 25.09765625 C-37.6328125 23.44765625 -37.6328125 21.79765625 -37.6328125 20.09765625 C-36.6428125 20.09765625 -35.6528125 20.09765625 -34.6328125 20.09765625 C-34.6328125 18.11765625 -34.6328125 16.13765625 -34.6328125 14.09765625 C-32.6528125 14.09765625 -30.6728125 14.09765625 -28.6328125 14.09765625 C-28.6328125 13.10765625 -28.6328125 12.11765625 -28.6328125 11.09765625 C-26.9828125 11.09765625 -25.3328125 11.09765625 -23.6328125 11.09765625 C-23.6328125 10.43765625 -23.6328125 9.77765625 -23.6328125 9.09765625 C-22.6428125 9.09765625 -21.6528125 9.09765625 -20.6328125 9.09765625 C-20.6328125 8.10765625 -20.6328125 7.11765625 -20.6328125 6.09765625 C-18.9828125 6.09765625 -17.3328125 6.09765625 -15.6328125 6.09765625 C-15.6328125 5.10765625 -15.6328125 4.11765625 -15.6328125 3.09765625 C-13.6528125 3.09765625 -11.6728125 3.09765625 -9.6328125 3.09765625 C-9.6328125 2.43765625 -9.6328125 1.77765625 -9.6328125 1.09765625 C-6.56686656 -0.43531672 -3.36169397 -0.0236583 0 0 Z " fill="#FEFEFE" transform="translate(631.6328125,151.90234375)"/>
</svg>
